<mxfile host="app.diagrams.net" modified="2023-11-16T22:11:51.022Z" agent="Mozilla/5.0 (Windows NT 10.0; Win64; x64) AppleWebKit/537.36 (KHTML, like Gecko) Chrome/119.0.0.0 Safari/537.36" etag="deKdLnCcKk7s7h9QOJCr" version="21.6.9" type="google">
  <diagram id="C5RBs43oDa-KdzZeNtuy" name="Page-1">
    <mxGraphModel grid="1" page="1" gridSize="10" guides="1" tooltips="1" connect="1" arrows="1" fold="1" pageScale="1" pageWidth="827" pageHeight="1169" math="0" shadow="0">
      <root>
        <mxCell id="WIyWlLk6GJQsqaUBKTNV-0" />
        <mxCell id="WIyWlLk6GJQsqaUBKTNV-1" parent="WIyWlLk6GJQsqaUBKTNV-0" />
        <mxCell id="pFk3PV32VIBd_ui4iL-Q-31" value="" style="rounded=0;html=1;jettySize=auto;orthogonalLoop=1;fontSize=11;endArrow=block;endFill=0;endSize=8;strokeWidth=1;shadow=0;labelBackgroundColor=none;edgeStyle=orthogonalEdgeStyle;entryX=1;entryY=0.5;entryDx=0;entryDy=0;fontColor=default;" edge="1" parent="WIyWlLk6GJQsqaUBKTNV-1" target="pFk3PV32VIBd_ui4iL-Q-30">
          <mxGeometry x="-1" y="502" relative="1" as="geometry">
            <mxPoint x="392" y="490" as="offset" />
            <mxPoint x="-160" y="-270" as="sourcePoint" />
            <mxPoint x="-90" y="-240" as="targetPoint" />
            <Array as="points">
              <mxPoint x="-90" y="-270" />
            </Array>
          </mxGeometry>
        </mxCell>
        <mxCell id="pFk3PV32VIBd_ui4iL-Q-13" value="" style="rounded=0;html=1;jettySize=auto;orthogonalLoop=1;fontSize=11;endArrow=block;endFill=0;endSize=8;strokeWidth=1;shadow=0;labelBackgroundColor=none;edgeStyle=orthogonalEdgeStyle;exitX=0;exitY=0.5;exitDx=0;exitDy=0;fontColor=default;" edge="1" parent="WIyWlLk6GJQsqaUBKTNV-1" source="WIyWlLk6GJQsqaUBKTNV-3" target="pFk3PV32VIBd_ui4iL-Q-8">
          <mxGeometry relative="1" as="geometry">
            <mxPoint x="180" y="180" as="sourcePoint" />
            <mxPoint x="180" y="220" as="targetPoint" />
            <Array as="points">
              <mxPoint x="170" y="50" />
            </Array>
          </mxGeometry>
        </mxCell>
        <mxCell id="WIyWlLk6GJQsqaUBKTNV-2" value="" style="rounded=0;html=1;jettySize=auto;orthogonalLoop=1;fontSize=11;endArrow=block;endFill=0;endSize=8;strokeWidth=1;shadow=0;labelBackgroundColor=none;edgeStyle=orthogonalEdgeStyle;fontColor=default;" edge="1" parent="WIyWlLk6GJQsqaUBKTNV-1" source="WIyWlLk6GJQsqaUBKTNV-3" target="WIyWlLk6GJQsqaUBKTNV-6">
          <mxGeometry relative="1" as="geometry">
            <Array as="points">
              <mxPoint x="310" y="80" />
              <mxPoint x="310" y="80" />
            </Array>
          </mxGeometry>
        </mxCell>
        <mxCell id="WIyWlLk6GJQsqaUBKTNV-3" value="Personaje" style="rounded=1;whiteSpace=wrap;html=1;fontSize=12;glass=0;strokeWidth=1;shadow=0;labelBackgroundColor=none;fillColor=#dae8fc;strokeColor=#6c8ebf;" vertex="1" parent="WIyWlLk6GJQsqaUBKTNV-1">
          <mxGeometry x="300" y="30" width="120" height="40" as="geometry" />
        </mxCell>
        <mxCell id="WIyWlLk6GJQsqaUBKTNV-6" value="Posee" style="rhombus;whiteSpace=wrap;html=1;shadow=0;fontFamily=Helvetica;fontSize=12;align=center;strokeWidth=1;spacing=6;spacingTop=-4;labelBackgroundColor=none;" vertex="1" parent="WIyWlLk6GJQsqaUBKTNV-1">
          <mxGeometry x="260" y="130" width="100" height="80" as="geometry" />
        </mxCell>
        <mxCell id="WIyWlLk6GJQsqaUBKTNV-7" value="Habilidad" style="rounded=1;whiteSpace=wrap;html=1;fontSize=12;glass=0;strokeWidth=1;shadow=0;labelBackgroundColor=none;fillColor=#dae8fc;strokeColor=#6c8ebf;" vertex="1" parent="WIyWlLk6GJQsqaUBKTNV-1">
          <mxGeometry x="650" y="30" width="120" height="40" as="geometry" />
        </mxCell>
        <mxCell id="WIyWlLk6GJQsqaUBKTNV-8" value="" style="rounded=0;html=1;jettySize=auto;orthogonalLoop=1;fontSize=11;endArrow=block;endFill=0;endSize=8;strokeWidth=1;shadow=0;labelBackgroundColor=none;edgeStyle=orthogonalEdgeStyle;entryX=0;entryY=0.5;entryDx=0;entryDy=0;exitX=1;exitY=0.5;exitDx=0;exitDy=0;exitPerimeter=0;fontColor=default;" edge="1" parent="WIyWlLk6GJQsqaUBKTNV-1" source="WIyWlLk6GJQsqaUBKTNV-11" target="WIyWlLk6GJQsqaUBKTNV-10">
          <mxGeometry x="-1" y="502" relative="1" as="geometry">
            <mxPoint x="392" y="490" as="offset" />
            <mxPoint x="-30" y="10" as="sourcePoint" />
            <mxPoint x="240" y="370" as="targetPoint" />
            <Array as="points">
              <mxPoint x="-30" y="-20" />
              <mxPoint x="-30" y="-110" />
            </Array>
          </mxGeometry>
        </mxCell>
        <mxCell id="WIyWlLk6GJQsqaUBKTNV-10" value="Selecciona" style="rhombus;whiteSpace=wrap;html=1;shadow=0;fontFamily=Helvetica;fontSize=12;align=center;strokeWidth=1;spacing=6;spacingTop=-4;rotation=0;labelBackgroundColor=none;" vertex="1" parent="WIyWlLk6GJQsqaUBKTNV-1">
          <mxGeometry x="170" y="-150" width="100" height="80" as="geometry" />
        </mxCell>
        <mxCell id="WIyWlLk6GJQsqaUBKTNV-11" value="Jugador" style="rounded=1;whiteSpace=wrap;html=1;fontSize=12;glass=0;strokeWidth=1;shadow=0;labelBackgroundColor=none;fillColor=#dae8fc;strokeColor=#6c8ebf;" vertex="1" parent="WIyWlLk6GJQsqaUBKTNV-1">
          <mxGeometry x="-160" y="-40" width="120" height="40" as="geometry" />
        </mxCell>
        <mxCell id="WIyWlLk6GJQsqaUBKTNV-12" value="ArtÃ­culo&amp;nbsp;" style="rounded=1;whiteSpace=wrap;html=1;fontSize=12;glass=0;strokeWidth=1;shadow=0;labelBackgroundColor=none;fillColor=#dae8fc;strokeColor=#6c8ebf;" vertex="1" parent="WIyWlLk6GJQsqaUBKTNV-1">
          <mxGeometry x="-520" y="-165" width="100" height="50" as="geometry" />
        </mxCell>
        <mxCell id="pFk3PV32VIBd_ui4iL-Q-1" value="Modo" style="rounded=1;whiteSpace=wrap;html=1;fontSize=12;glass=0;strokeWidth=1;shadow=0;labelBackgroundColor=none;fillColor=#dae8fc;strokeColor=#6c8ebf;" vertex="1" parent="WIyWlLk6GJQsqaUBKTNV-1">
          <mxGeometry x="-520" y="-360" width="120" height="40" as="geometry" />
        </mxCell>
        <mxCell id="pFk3PV32VIBd_ui4iL-Q-2" value="Rol" style="rounded=1;whiteSpace=wrap;html=1;fontSize=12;glass=0;strokeWidth=1;shadow=0;labelBackgroundColor=none;fillColor=#dae8fc;strokeColor=#6c8ebf;" vertex="1" parent="WIyWlLk6GJQsqaUBKTNV-1">
          <mxGeometry x="420" y="145" width="100" height="50" as="geometry" />
        </mxCell>
        <mxCell id="pFk3PV32VIBd_ui4iL-Q-4" value="Partida" style="rounded=1;whiteSpace=wrap;html=1;fontSize=12;glass=0;strokeWidth=1;shadow=0;labelBackgroundColor=none;fillColor=#dae8fc;strokeColor=#6c8ebf;" vertex="1" parent="WIyWlLk6GJQsqaUBKTNV-1">
          <mxGeometry x="-160" y="-290" width="120" height="40" as="geometry" />
        </mxCell>
        <mxCell id="pFk3PV32VIBd_ui4iL-Q-6" value="Panteon" style="rounded=1;whiteSpace=wrap;html=1;fontSize=12;glass=0;strokeWidth=1;shadow=0;labelBackgroundColor=none;fillColor=#dae8fc;strokeColor=#6c8ebf;" vertex="1" parent="WIyWlLk6GJQsqaUBKTNV-1">
          <mxGeometry x="110" y="210" width="120" height="40" as="geometry" />
        </mxCell>
        <mxCell id="pFk3PV32VIBd_ui4iL-Q-10" value="" style="rounded=0;html=1;jettySize=auto;orthogonalLoop=1;fontSize=11;endArrow=block;endFill=0;endSize=8;strokeWidth=1;shadow=0;labelBackgroundColor=none;edgeStyle=orthogonalEdgeStyle;entryX=0.5;entryY=0;entryDx=0;entryDy=0;fontColor=default;" edge="1" parent="WIyWlLk6GJQsqaUBKTNV-1" target="pFk3PV32VIBd_ui4iL-Q-6">
          <mxGeometry relative="1" as="geometry">
            <mxPoint x="170" y="170" as="sourcePoint" />
            <mxPoint x="200" y="200" as="targetPoint" />
            <Array as="points">
              <mxPoint x="170" y="190" />
              <mxPoint x="170" y="190" />
            </Array>
          </mxGeometry>
        </mxCell>
        <mxCell id="pFk3PV32VIBd_ui4iL-Q-8" value="Tiene" style="rhombus;whiteSpace=wrap;html=1;shadow=0;fontFamily=Helvetica;fontSize=12;align=center;strokeWidth=1;spacing=6;spacingTop=-4;labelBackgroundColor=none;" vertex="1" parent="WIyWlLk6GJQsqaUBKTNV-1">
          <mxGeometry x="120" y="80" width="100" height="90" as="geometry" />
        </mxCell>
        <mxCell id="pFk3PV32VIBd_ui4iL-Q-14" value="Usa" style="rhombus;whiteSpace=wrap;html=1;shadow=0;fontFamily=Helvetica;fontSize=12;align=center;strokeWidth=1;spacing=6;spacingTop=-4;labelBackgroundColor=none;" vertex="1" parent="WIyWlLk6GJQsqaUBKTNV-1">
          <mxGeometry x="520" y="10" width="86" height="80" as="geometry" />
        </mxCell>
        <mxCell id="pFk3PV32VIBd_ui4iL-Q-15" value="" style="rounded=0;html=1;jettySize=auto;orthogonalLoop=1;fontSize=11;endArrow=block;endFill=0;endSize=8;strokeWidth=1;shadow=0;labelBackgroundColor=none;edgeStyle=orthogonalEdgeStyle;exitX=1;exitY=0.5;exitDx=0;exitDy=0;entryX=0;entryY=0.5;entryDx=0;entryDy=0;fontColor=default;" edge="1" parent="WIyWlLk6GJQsqaUBKTNV-1" source="WIyWlLk6GJQsqaUBKTNV-3" target="pFk3PV32VIBd_ui4iL-Q-14">
          <mxGeometry relative="1" as="geometry">
            <mxPoint x="370" y="80" as="sourcePoint" />
            <mxPoint x="370" y="180" as="targetPoint" />
          </mxGeometry>
        </mxCell>
        <mxCell id="pFk3PV32VIBd_ui4iL-Q-16" value="" style="rounded=0;html=1;jettySize=auto;orthogonalLoop=1;fontSize=11;endArrow=block;endFill=0;endSize=8;strokeWidth=1;shadow=0;labelBackgroundColor=none;edgeStyle=orthogonalEdgeStyle;exitX=1;exitY=0.5;exitDx=0;exitDy=0;entryX=0;entryY=0.5;entryDx=0;entryDy=0;fontColor=default;" edge="1" parent="WIyWlLk6GJQsqaUBKTNV-1" source="WIyWlLk6GJQsqaUBKTNV-6" target="pFk3PV32VIBd_ui4iL-Q-2">
          <mxGeometry relative="1" as="geometry">
            <mxPoint x="380" y="20" as="sourcePoint" />
            <mxPoint x="450" y="40" as="targetPoint" />
            <Array as="points">
              <mxPoint x="380" y="170" />
              <mxPoint x="380" y="170" />
            </Array>
          </mxGeometry>
        </mxCell>
        <mxCell id="pFk3PV32VIBd_ui4iL-Q-17" value="" style="rounded=0;html=1;jettySize=auto;orthogonalLoop=1;fontSize=11;endArrow=block;endFill=0;endSize=8;strokeWidth=1;shadow=0;labelBackgroundColor=none;edgeStyle=orthogonalEdgeStyle;exitX=0.95;exitY=0.5;exitDx=0;exitDy=0;exitPerimeter=0;entryX=0;entryY=0.5;entryDx=0;entryDy=0;fontColor=default;" edge="1" parent="WIyWlLk6GJQsqaUBKTNV-1" source="pFk3PV32VIBd_ui4iL-Q-14" target="WIyWlLk6GJQsqaUBKTNV-7">
          <mxGeometry relative="1" as="geometry">
            <mxPoint x="430" y="60" as="sourcePoint" />
            <mxPoint x="610" y="30" as="targetPoint" />
            <Array as="points" />
          </mxGeometry>
        </mxCell>
        <mxCell id="pFk3PV32VIBd_ui4iL-Q-20" value="" style="rounded=0;html=1;jettySize=auto;orthogonalLoop=1;fontSize=11;endArrow=block;endFill=0;endSize=8;strokeWidth=1;shadow=0;labelBackgroundColor=none;edgeStyle=orthogonalEdgeStyle;exitX=1;exitY=0.5;exitDx=0;exitDy=0;entryX=0.25;entryY=0;entryDx=0;entryDy=0;fontColor=default;" edge="1" parent="WIyWlLk6GJQsqaUBKTNV-1" source="WIyWlLk6GJQsqaUBKTNV-10" target="WIyWlLk6GJQsqaUBKTNV-3">
          <mxGeometry x="-1" y="502" relative="1" as="geometry">
            <mxPoint x="392" y="490" as="offset" />
            <mxPoint x="50" y="-30" as="sourcePoint" />
            <mxPoint x="380" y="-10" as="targetPoint" />
            <Array as="points">
              <mxPoint x="330" y="-110" />
            </Array>
          </mxGeometry>
        </mxCell>
        <mxCell id="pFk3PV32VIBd_ui4iL-Q-21" value="" style="rounded=0;html=1;jettySize=auto;orthogonalLoop=1;fontSize=11;endArrow=block;endFill=0;endSize=8;strokeWidth=1;shadow=0;labelBackgroundColor=none;edgeStyle=orthogonalEdgeStyle;entryX=0.5;entryY=1;entryDx=0;entryDy=0;fontColor=default;" edge="1" parent="WIyWlLk6GJQsqaUBKTNV-1" source="WIyWlLk6GJQsqaUBKTNV-11" target="pFk3PV32VIBd_ui4iL-Q-22">
          <mxGeometry x="-1" y="502" relative="1" as="geometry">
            <mxPoint x="392" y="490" as="offset" />
            <mxPoint x="80" y="-190" as="sourcePoint" />
            <mxPoint x="-120" y="-80" as="targetPoint" />
            <Array as="points">
              <mxPoint x="-100" y="-80" />
              <mxPoint x="-100" y="-80" />
            </Array>
          </mxGeometry>
        </mxCell>
        <mxCell id="pFk3PV32VIBd_ui4iL-Q-22" value="Juega" style="rhombus;whiteSpace=wrap;html=1;shadow=0;fontFamily=Helvetica;fontSize=12;align=center;strokeWidth=1;spacing=6;spacingTop=-4;rotation=0;labelBackgroundColor=none;" vertex="1" parent="WIyWlLk6GJQsqaUBKTNV-1">
          <mxGeometry x="-150" y="-180" width="100" height="80" as="geometry" />
        </mxCell>
        <mxCell id="pFk3PV32VIBd_ui4iL-Q-24" value="" style="rounded=0;html=1;jettySize=auto;orthogonalLoop=1;fontSize=11;endArrow=block;endFill=0;endSize=8;strokeWidth=1;shadow=0;labelBackgroundColor=none;edgeStyle=orthogonalEdgeStyle;entryX=0.5;entryY=1;entryDx=0;entryDy=0;fontColor=default;" edge="1" parent="WIyWlLk6GJQsqaUBKTNV-1" target="pFk3PV32VIBd_ui4iL-Q-4">
          <mxGeometry x="-1" y="502" relative="1" as="geometry">
            <mxPoint x="392" y="490" as="offset" />
            <mxPoint x="-100" y="-180" as="sourcePoint" />
            <mxPoint x="-90" y="-90" as="targetPoint" />
            <Array as="points">
              <mxPoint x="-100" y="-210" />
              <mxPoint x="-100" y="-210" />
            </Array>
          </mxGeometry>
        </mxCell>
        <mxCell id="pFk3PV32VIBd_ui4iL-Q-25" value="Compra" style="rhombus;whiteSpace=wrap;html=1;shadow=0;fontFamily=Helvetica;fontSize=12;align=center;strokeWidth=1;spacing=6;spacingTop=-4;rotation=0;labelBackgroundColor=none;" vertex="1" parent="WIyWlLk6GJQsqaUBKTNV-1">
          <mxGeometry x="-350" y="-180" width="100" height="80" as="geometry" />
        </mxCell>
        <mxCell id="pFk3PV32VIBd_ui4iL-Q-26" value="" style="rounded=0;html=1;jettySize=auto;orthogonalLoop=1;fontSize=11;endArrow=block;endFill=0;endSize=8;strokeWidth=1;shadow=0;labelBackgroundColor=none;edgeStyle=orthogonalEdgeStyle;exitX=0;exitY=0.75;exitDx=0;exitDy=0;entryX=1;entryY=0.5;entryDx=0;entryDy=0;fontColor=default;" edge="1" parent="WIyWlLk6GJQsqaUBKTNV-1" source="WIyWlLk6GJQsqaUBKTNV-11" target="pFk3PV32VIBd_ui4iL-Q-25">
          <mxGeometry x="-1" y="502" relative="1" as="geometry">
            <mxPoint x="392" y="490" as="offset" />
            <mxPoint x="-170" as="sourcePoint" />
            <mxPoint x="-240" y="-120" as="targetPoint" />
            <Array as="points">
              <mxPoint x="-210" y="-10" />
              <mxPoint x="-210" y="-140" />
            </Array>
          </mxGeometry>
        </mxCell>
        <mxCell id="pFk3PV32VIBd_ui4iL-Q-27" value="" style="rounded=0;html=1;jettySize=auto;orthogonalLoop=1;fontSize=11;endArrow=block;endFill=0;endSize=8;strokeWidth=1;shadow=0;labelBackgroundColor=none;edgeStyle=orthogonalEdgeStyle;exitX=0;exitY=0.5;exitDx=0;exitDy=0;entryX=1;entryY=0.5;entryDx=0;entryDy=0;fontColor=default;" edge="1" parent="WIyWlLk6GJQsqaUBKTNV-1" source="pFk3PV32VIBd_ui4iL-Q-25" target="WIyWlLk6GJQsqaUBKTNV-12">
          <mxGeometry x="-1" y="502" relative="1" as="geometry">
            <mxPoint x="392" y="490" as="offset" />
            <mxPoint x="-370" y="-40" as="sourcePoint" />
            <mxPoint x="-420" y="-130" as="targetPoint" />
            <Array as="points" />
          </mxGeometry>
        </mxCell>
        <mxCell id="pFk3PV32VIBd_ui4iL-Q-30" value="Contiene&amp;nbsp;" style="rhombus;whiteSpace=wrap;html=1;shadow=0;fontFamily=Helvetica;fontSize=12;align=center;strokeWidth=1;spacing=6;spacingTop=-4;rotation=0;labelBackgroundColor=none;" vertex="1" parent="WIyWlLk6GJQsqaUBKTNV-1">
          <mxGeometry x="-350" y="-310" width="100" height="80" as="geometry" />
        </mxCell>
        <mxCell id="pFk3PV32VIBd_ui4iL-Q-32" value="" style="rounded=0;html=1;jettySize=auto;orthogonalLoop=1;fontSize=11;endArrow=block;endFill=0;endSize=8;strokeWidth=1;shadow=0;labelBackgroundColor=none;edgeStyle=orthogonalEdgeStyle;entryX=1;entryY=0.5;entryDx=0;entryDy=0;fontColor=default;" edge="1" parent="WIyWlLk6GJQsqaUBKTNV-1" target="pFk3PV32VIBd_ui4iL-Q-1">
          <mxGeometry x="-1" y="502" relative="1" as="geometry">
            <mxPoint x="392" y="490" as="offset" />
            <mxPoint x="-350" y="-270" as="sourcePoint" />
            <mxPoint x="-420" y="-260" as="targetPoint" />
            <Array as="points">
              <mxPoint x="-370" y="-270" />
              <mxPoint x="-370" y="-340" />
            </Array>
          </mxGeometry>
        </mxCell>
        <mxCell id="-9TuaNc491Z5Ao6eYsdF-0" value="" style="endArrow=none;html=1;rounded=0;exitX=0.75;exitY=1;exitDx=0;exitDy=0;entryX=0.5;entryY=0;entryDx=0;entryDy=0;labelBackgroundColor=none;fontColor=default;" edge="1" parent="WIyWlLk6GJQsqaUBKTNV-1" source="WIyWlLk6GJQsqaUBKTNV-11" target="-9TuaNc491Z5Ao6eYsdF-1">
          <mxGeometry width="50" height="50" relative="1" as="geometry">
            <mxPoint x="-10" y="-190" as="sourcePoint" />
            <mxPoint x="-60" y="30" as="targetPoint" />
          </mxGeometry>
        </mxCell>
        <mxCell id="-9TuaNc491Z5Ao6eYsdF-1" value="personaje" style="ellipse;whiteSpace=wrap;html=1;labelBackgroundColor=none;fillColor=#ffe6cc;strokeColor=#d79b00;" vertex="1" parent="WIyWlLk6GJQsqaUBKTNV-1">
          <mxGeometry x="-90" y="50" width="100" height="50" as="geometry" />
        </mxCell>
        <mxCell id="-9TuaNc491Z5Ao6eYsdF-3" value="" style="endArrow=none;html=1;rounded=0;exitX=0.25;exitY=1;exitDx=0;exitDy=0;entryX=0.5;entryY=0;entryDx=0;entryDy=0;labelBackgroundColor=none;fontColor=default;" edge="1" parent="WIyWlLk6GJQsqaUBKTNV-1" source="WIyWlLk6GJQsqaUBKTNV-11" target="-9TuaNc491Z5Ao6eYsdF-4">
          <mxGeometry width="50" height="50" relative="1" as="geometry">
            <mxPoint x="-60" y="10" as="sourcePoint" />
            <mxPoint x="-120" y="30" as="targetPoint" />
          </mxGeometry>
        </mxCell>
        <mxCell id="-9TuaNc491Z5Ao6eYsdF-4" value="&lt;b&gt;&lt;u&gt;nombre&lt;/u&gt;&lt;/b&gt;" style="ellipse;whiteSpace=wrap;html=1;labelBackgroundColor=none;fillColor=#ffe6cc;strokeColor=#d79b00;" vertex="1" parent="WIyWlLk6GJQsqaUBKTNV-1">
          <mxGeometry x="-220" y="50" width="100" height="50" as="geometry" />
        </mxCell>
        <mxCell id="-9TuaNc491Z5Ao6eYsdF-7" value="" style="endArrow=none;html=1;rounded=0;exitX=0.164;exitY=0.993;exitDx=0;exitDy=0;entryX=0.5;entryY=0;entryDx=0;entryDy=0;exitPerimeter=0;labelBackgroundColor=none;fontColor=default;" edge="1" parent="WIyWlLk6GJQsqaUBKTNV-1" source="WIyWlLk6GJQsqaUBKTNV-12" target="-9TuaNc491Z5Ao6eYsdF-8">
          <mxGeometry width="50" height="50" relative="1" as="geometry">
            <mxPoint x="-488" y="-115" as="sourcePoint" />
            <mxPoint x="-580" y="-86" as="targetPoint" />
          </mxGeometry>
        </mxCell>
        <mxCell id="-9TuaNc491Z5Ao6eYsdF-8" value="&lt;u&gt;&lt;b&gt;articulo&lt;/b&gt;&lt;/u&gt;" style="ellipse;whiteSpace=wrap;html=1;labelBackgroundColor=none;fillColor=#ffe6cc;strokeColor=#d79b00;" vertex="1" parent="WIyWlLk6GJQsqaUBKTNV-1">
          <mxGeometry x="-610" y="-55" width="100" height="50" as="geometry" />
        </mxCell>
        <mxCell id="-9TuaNc491Z5Ao6eYsdF-14" value="" style="endArrow=none;html=1;rounded=0;exitX=0.75;exitY=0;exitDx=0;exitDy=0;entryX=0;entryY=0.5;entryDx=0;entryDy=0;edgeStyle=orthogonalEdgeStyle;labelBackgroundColor=none;fontColor=default;" edge="1" parent="WIyWlLk6GJQsqaUBKTNV-1" source="WIyWlLk6GJQsqaUBKTNV-3" target="-9TuaNc491Z5Ao6eYsdF-15">
          <mxGeometry width="50" height="50" relative="1" as="geometry">
            <mxPoint x="460" y="-150" as="sourcePoint" />
            <mxPoint x="470" y="-120" as="targetPoint" />
            <Array as="points">
              <mxPoint x="390" y="-140" />
            </Array>
          </mxGeometry>
        </mxCell>
        <mxCell id="-9TuaNc491Z5Ao6eYsdF-15" value="&lt;b&gt;&lt;u&gt;personaje&lt;/u&gt;&lt;/b&gt;" style="ellipse;whiteSpace=wrap;html=1;labelBackgroundColor=none;fillColor=#ffe6cc;strokeColor=#d79b00;" vertex="1" parent="WIyWlLk6GJQsqaUBKTNV-1">
          <mxGeometry x="460" y="-165" width="110" height="50" as="geometry" />
        </mxCell>
        <mxCell id="-9TuaNc491Z5Ao6eYsdF-16" value="" style="endArrow=none;html=1;rounded=0;entryX=0;entryY=0.5;entryDx=0;entryDy=0;edgeStyle=orthogonalEdgeStyle;labelBackgroundColor=none;fontColor=default;" edge="1" parent="WIyWlLk6GJQsqaUBKTNV-1" target="-9TuaNc491Z5Ao6eYsdF-17">
          <mxGeometry width="50" height="50" relative="1" as="geometry">
            <mxPoint x="400" y="29" as="sourcePoint" />
            <mxPoint x="475" y="-60" as="targetPoint" />
            <Array as="points">
              <mxPoint x="400" y="29" />
              <mxPoint x="400" y="-80" />
            </Array>
          </mxGeometry>
        </mxCell>
        <mxCell id="-9TuaNc491Z5Ao6eYsdF-17" value="panteon" style="ellipse;whiteSpace=wrap;html=1;labelBackgroundColor=none;fillColor=#ffe6cc;strokeColor=#d79b00;" vertex="1" parent="WIyWlLk6GJQsqaUBKTNV-1">
          <mxGeometry x="465" y="-105" width="110" height="50" as="geometry" />
        </mxCell>
        <mxCell id="-9TuaNc491Z5Ao6eYsdF-18" value="rol" style="ellipse;whiteSpace=wrap;html=1;labelBackgroundColor=none;fillColor=#ffe6cc;strokeColor=#d79b00;" vertex="1" parent="WIyWlLk6GJQsqaUBKTNV-1">
          <mxGeometry x="460" y="-300" width="110" height="50" as="geometry" />
        </mxCell>
        <mxCell id="-9TuaNc491Z5Ao6eYsdF-19" value="dificultad" style="ellipse;whiteSpace=wrap;html=1;labelBackgroundColor=none;fillColor=#ffe6cc;strokeColor=#d79b00;" vertex="1" parent="WIyWlLk6GJQsqaUBKTNV-1">
          <mxGeometry x="460" y="-230" width="110" height="50" as="geometry" />
        </mxCell>
        <mxCell id="-9TuaNc491Z5Ao6eYsdF-20" value="" style="endArrow=none;html=1;rounded=0;exitX=0.43;exitY=0.013;exitDx=0;exitDy=0;entryX=0;entryY=0.5;entryDx=0;entryDy=0;edgeStyle=orthogonalEdgeStyle;exitPerimeter=0;labelBackgroundColor=none;fontColor=default;" edge="1" parent="WIyWlLk6GJQsqaUBKTNV-1" source="WIyWlLk6GJQsqaUBKTNV-3" target="-9TuaNc491Z5Ao6eYsdF-18">
          <mxGeometry width="50" height="50" relative="1" as="geometry">
            <mxPoint x="370" y="40" as="sourcePoint" />
            <mxPoint x="470" y="-130" as="targetPoint" />
            <Array as="points">
              <mxPoint x="350" y="31" />
              <mxPoint x="350" y="-280" />
              <mxPoint x="460" y="-280" />
            </Array>
          </mxGeometry>
        </mxCell>
        <mxCell id="-9TuaNc491Z5Ao6eYsdF-21" value="" style="endArrow=none;html=1;rounded=0;exitX=0.583;exitY=0;exitDx=0;exitDy=0;entryX=0;entryY=0.5;entryDx=0;entryDy=0;edgeStyle=orthogonalEdgeStyle;exitPerimeter=0;labelBackgroundColor=none;fontColor=default;" edge="1" parent="WIyWlLk6GJQsqaUBKTNV-1" source="WIyWlLk6GJQsqaUBKTNV-3" target="-9TuaNc491Z5Ao6eYsdF-19">
          <mxGeometry width="50" height="50" relative="1" as="geometry">
            <mxPoint x="380" y="50" as="sourcePoint" />
            <mxPoint x="480" y="-120" as="targetPoint" />
            <Array as="points">
              <mxPoint x="370" y="-210" />
              <mxPoint x="460" y="-210" />
            </Array>
          </mxGeometry>
        </mxCell>
        <mxCell id="-9TuaNc491Z5Ao6eYsdF-22" value="modo" style="ellipse;whiteSpace=wrap;html=1;labelBackgroundColor=none;fillColor=#ffe6cc;strokeColor=#d79b00;" vertex="1" parent="WIyWlLk6GJQsqaUBKTNV-1">
          <mxGeometry x="-280" y="-380" width="110" height="50" as="geometry" />
        </mxCell>
        <mxCell id="-9TuaNc491Z5Ao6eYsdF-23" value="&lt;b&gt;&lt;u&gt;ID&lt;/u&gt;&lt;/b&gt;" style="ellipse;whiteSpace=wrap;html=1;labelBackgroundColor=none;fillColor=#ffe6cc;strokeColor=#d79b00;" vertex="1" parent="WIyWlLk6GJQsqaUBKTNV-1">
          <mxGeometry x="-210" y="-430" width="110" height="50" as="geometry" />
        </mxCell>
        <mxCell id="-9TuaNc491Z5Ao6eYsdF-24" value="inicioPartida" style="ellipse;whiteSpace=wrap;html=1;labelBackgroundColor=none;fillColor=#ffe6cc;strokeColor=#d79b00;" vertex="1" parent="WIyWlLk6GJQsqaUBKTNV-1">
          <mxGeometry x="-80" y="-430" width="110" height="50" as="geometry" />
        </mxCell>
        <mxCell id="-9TuaNc491Z5Ao6eYsdF-25" value="finPartida" style="ellipse;whiteSpace=wrap;html=1;labelBackgroundColor=none;fillColor=#ffe6cc;strokeColor=#d79b00;" vertex="1" parent="WIyWlLk6GJQsqaUBKTNV-1">
          <mxGeometry x="-20" y="-380" width="110" height="50" as="geometry" />
        </mxCell>
        <mxCell id="-9TuaNc491Z5Ao6eYsdF-27" value="" style="endArrow=none;html=1;rounded=0;exitX=1;exitY=1;exitDx=0;exitDy=0;entryX=0.107;entryY=-0.075;entryDx=0;entryDy=0;entryPerimeter=0;labelBackgroundColor=none;fontColor=default;" edge="1" parent="WIyWlLk6GJQsqaUBKTNV-1" source="-9TuaNc491Z5Ao6eYsdF-22" target="pFk3PV32VIBd_ui4iL-Q-4">
          <mxGeometry width="50" height="50" relative="1" as="geometry">
            <mxPoint x="-120" y="10" as="sourcePoint" />
            <mxPoint x="-160" y="60" as="targetPoint" />
          </mxGeometry>
        </mxCell>
        <mxCell id="-9TuaNc491Z5Ao6eYsdF-28" value="" style="endArrow=none;html=1;rounded=0;exitX=0.657;exitY=0.952;exitDx=0;exitDy=0;entryX=0.421;entryY=-0.046;entryDx=0;entryDy=0;exitPerimeter=0;entryPerimeter=0;labelBackgroundColor=none;fontColor=default;" edge="1" parent="WIyWlLk6GJQsqaUBKTNV-1" source="-9TuaNc491Z5Ao6eYsdF-23" target="pFk3PV32VIBd_ui4iL-Q-4">
          <mxGeometry width="50" height="50" relative="1" as="geometry">
            <mxPoint x="-110" y="20" as="sourcePoint" />
            <mxPoint x="-150" y="70" as="targetPoint" />
          </mxGeometry>
        </mxCell>
        <mxCell id="-9TuaNc491Z5Ao6eYsdF-29" value="" style="endArrow=none;html=1;rounded=0;exitX=0.256;exitY=1.093;exitDx=0;exitDy=0;entryX=0.597;entryY=-0.134;entryDx=0;entryDy=0;exitPerimeter=0;entryPerimeter=0;labelBackgroundColor=none;fontColor=default;" edge="1" parent="WIyWlLk6GJQsqaUBKTNV-1" source="-9TuaNc491Z5Ao6eYsdF-24" target="pFk3PV32VIBd_ui4iL-Q-4">
          <mxGeometry width="50" height="50" relative="1" as="geometry">
            <mxPoint x="-128" y="-372" as="sourcePoint" />
            <mxPoint x="-99" y="-282" as="targetPoint" />
          </mxGeometry>
        </mxCell>
        <mxCell id="-9TuaNc491Z5Ao6eYsdF-30" value="" style="endArrow=none;html=1;rounded=0;exitX=0;exitY=1;exitDx=0;exitDy=0;entryX=0.901;entryY=-0.046;entryDx=0;entryDy=0;entryPerimeter=0;labelBackgroundColor=none;fontColor=default;" edge="1" parent="WIyWlLk6GJQsqaUBKTNV-1" source="-9TuaNc491Z5Ao6eYsdF-25" target="pFk3PV32VIBd_ui4iL-Q-4">
          <mxGeometry width="50" height="50" relative="1" as="geometry">
            <mxPoint x="-118" y="-362" as="sourcePoint" />
            <mxPoint x="-89" y="-272" as="targetPoint" />
          </mxGeometry>
        </mxCell>
        <mxCell id="-9TuaNc491Z5Ao6eYsdF-31" value="&lt;b&gt;&lt;u&gt;modo&lt;/u&gt;&lt;/b&gt;" style="ellipse;whiteSpace=wrap;html=1;labelBackgroundColor=none;fillColor=#ffe6cc;strokeColor=#d79b00;" vertex="1" parent="WIyWlLk6GJQsqaUBKTNV-1">
          <mxGeometry x="-700" y="-365" width="110" height="50" as="geometry" />
        </mxCell>
        <mxCell id="-9TuaNc491Z5Ao6eYsdF-32" value="descripcion" style="ellipse;whiteSpace=wrap;html=1;labelBackgroundColor=none;fillColor=#ffe6cc;strokeColor=#d79b00;" vertex="1" parent="WIyWlLk6GJQsqaUBKTNV-1">
          <mxGeometry x="-700" y="-290" width="110" height="50" as="geometry" />
        </mxCell>
        <mxCell id="-9TuaNc491Z5Ao6eYsdF-33" value="CantJugadores" style="ellipse;whiteSpace=wrap;html=1;labelBackgroundColor=none;fillColor=#ffe6cc;strokeColor=#d79b00;" vertex="1" parent="WIyWlLk6GJQsqaUBKTNV-1">
          <mxGeometry x="-690" y="-460" width="110" height="50" as="geometry" />
        </mxCell>
        <mxCell id="-9TuaNc491Z5Ao6eYsdF-34" value="&lt;b&gt;&lt;u&gt;rol&lt;/u&gt;&lt;/b&gt;" style="ellipse;whiteSpace=wrap;html=1;labelBackgroundColor=none;fillColor=#ffe6cc;strokeColor=#d79b00;" vertex="1" parent="WIyWlLk6GJQsqaUBKTNV-1">
          <mxGeometry x="590" y="145" width="110" height="50" as="geometry" />
        </mxCell>
        <mxCell id="-9TuaNc491Z5Ao6eYsdF-36" value="&lt;b&gt;&lt;u&gt;panteon&lt;/u&gt;&lt;/b&gt;" style="ellipse;whiteSpace=wrap;html=1;labelBackgroundColor=none;fillColor=#ffe6cc;strokeColor=#d79b00;" vertex="1" parent="WIyWlLk6GJQsqaUBKTNV-1">
          <mxGeometry x="115" y="310" width="110" height="50" as="geometry" />
        </mxCell>
        <mxCell id="-9TuaNc491Z5Ao6eYsdF-38" value="" style="endArrow=none;html=1;rounded=0;exitX=0.5;exitY=1;exitDx=0;exitDy=0;entryX=0.5;entryY=0;entryDx=0;entryDy=0;labelBackgroundColor=none;fontColor=default;" edge="1" parent="WIyWlLk6GJQsqaUBKTNV-1" source="pFk3PV32VIBd_ui4iL-Q-6" target="-9TuaNc491Z5Ao6eYsdF-36">
          <mxGeometry width="50" height="50" relative="1" as="geometry">
            <mxPoint x="530" y="180" as="sourcePoint" />
            <mxPoint x="600" y="180" as="targetPoint" />
          </mxGeometry>
        </mxCell>
        <mxCell id="-9TuaNc491Z5Ao6eYsdF-40" value="" style="endArrow=none;html=1;rounded=0;exitX=0;exitY=0.25;exitDx=0;exitDy=0;entryX=1;entryY=0.5;entryDx=0;entryDy=0;labelBackgroundColor=none;fontColor=default;" edge="1" parent="WIyWlLk6GJQsqaUBKTNV-1" source="pFk3PV32VIBd_ui4iL-Q-1" target="-9TuaNc491Z5Ao6eYsdF-33">
          <mxGeometry width="50" height="50" relative="1" as="geometry">
            <mxPoint x="-510" y="-130" as="sourcePoint" />
            <mxPoint x="-550" y="-130" as="targetPoint" />
          </mxGeometry>
        </mxCell>
        <mxCell id="-9TuaNc491Z5Ao6eYsdF-42" value="" style="endArrow=none;html=1;rounded=0;exitX=0;exitY=0.75;exitDx=0;exitDy=0;entryX=1;entryY=0.5;entryDx=0;entryDy=0;labelBackgroundColor=none;fontColor=default;" edge="1" parent="WIyWlLk6GJQsqaUBKTNV-1" source="pFk3PV32VIBd_ui4iL-Q-1" target="-9TuaNc491Z5Ao6eYsdF-32">
          <mxGeometry width="50" height="50" relative="1" as="geometry">
            <mxPoint x="-500" y="-330" as="sourcePoint" />
            <mxPoint x="-560" y="-415" as="targetPoint" />
          </mxGeometry>
        </mxCell>
        <mxCell id="-9TuaNc491Z5Ao6eYsdF-44" value="" style="endArrow=none;html=1;rounded=0;entryX=1;entryY=0.5;entryDx=0;entryDy=0;labelBackgroundColor=none;fontColor=default;" edge="1" parent="WIyWlLk6GJQsqaUBKTNV-1" target="-9TuaNc491Z5Ao6eYsdF-31">
          <mxGeometry width="50" height="50" relative="1" as="geometry">
            <mxPoint x="-520" y="-340" as="sourcePoint" />
            <mxPoint x="-570" y="-425" as="targetPoint" />
          </mxGeometry>
        </mxCell>
        <mxCell id="-9TuaNc491Z5Ao6eYsdF-45" value="costo" style="ellipse;whiteSpace=wrap;html=1;labelBackgroundColor=none;fillColor=#ffe6cc;strokeColor=#d79b00;" vertex="1" parent="WIyWlLk6GJQsqaUBKTNV-1">
          <mxGeometry x="-440" y="-55" width="100" height="50" as="geometry" />
        </mxCell>
        <mxCell id="-9TuaNc491Z5Ao6eYsdF-46" value="" style="endArrow=none;html=1;rounded=0;exitX=0.658;exitY=0.993;exitDx=0;exitDy=0;entryX=0.5;entryY=0;entryDx=0;entryDy=0;exitPerimeter=0;labelBackgroundColor=none;fontColor=default;" edge="1" parent="WIyWlLk6GJQsqaUBKTNV-1" source="WIyWlLk6GJQsqaUBKTNV-12" target="-9TuaNc491Z5Ao6eYsdF-45">
          <mxGeometry width="50" height="50" relative="1" as="geometry">
            <mxPoint x="-494" y="-105" as="sourcePoint" />
            <mxPoint x="-560" y="-20" as="targetPoint" />
          </mxGeometry>
        </mxCell>
        <mxCell id="-9TuaNc491Z5Ao6eYsdF-47" value="" style="endArrow=none;html=1;rounded=0;entryX=1;entryY=0.5;entryDx=0;entryDy=0;exitX=0;exitY=0.5;exitDx=0;exitDy=0;labelBackgroundColor=none;fontColor=default;" edge="1" parent="WIyWlLk6GJQsqaUBKTNV-1" source="-9TuaNc491Z5Ao6eYsdF-34" target="pFk3PV32VIBd_ui4iL-Q-2">
          <mxGeometry width="50" height="50" relative="1" as="geometry">
            <mxPoint x="560" y="260" as="sourcePoint" />
            <mxPoint x="180" y="320" as="targetPoint" />
          </mxGeometry>
        </mxCell>
        <mxCell id="-9TuaNc491Z5Ao6eYsdF-48" value="&lt;b&gt;&lt;u&gt;habilidad&lt;/u&gt;&lt;/b&gt;" style="ellipse;whiteSpace=wrap;html=1;labelBackgroundColor=none;fillColor=#ffe6cc;strokeColor=#d79b00;" vertex="1" parent="WIyWlLk6GJQsqaUBKTNV-1">
          <mxGeometry x="860" y="25" width="110" height="50" as="geometry" />
        </mxCell>
        <mxCell id="-9TuaNc491Z5Ao6eYsdF-49" value="" style="endArrow=none;html=1;rounded=0;entryX=1;entryY=0.5;entryDx=0;entryDy=0;exitX=0;exitY=0.5;exitDx=0;exitDy=0;labelBackgroundColor=none;fontColor=default;" edge="1" parent="WIyWlLk6GJQsqaUBKTNV-1" source="-9TuaNc491Z5Ao6eYsdF-48" target="WIyWlLk6GJQsqaUBKTNV-7">
          <mxGeometry width="50" height="50" relative="1" as="geometry">
            <mxPoint x="600" y="180" as="sourcePoint" />
            <mxPoint x="530" y="180" as="targetPoint" />
          </mxGeometry>
        </mxCell>
        <mxCell id="-9TuaNc491Z5Ao6eYsdF-50" value="personaje" style="ellipse;whiteSpace=wrap;html=1;labelBackgroundColor=none;fillColor=#ffe6cc;strokeColor=#d79b00;" vertex="1" parent="WIyWlLk6GJQsqaUBKTNV-1">
          <mxGeometry x="860" y="90" width="110" height="50" as="geometry" />
        </mxCell>
        <mxCell id="-9TuaNc491Z5Ao6eYsdF-51" value="descripcion" style="ellipse;whiteSpace=wrap;html=1;labelBackgroundColor=none;fillColor=#ffe6cc;strokeColor=#d79b00;" vertex="1" parent="WIyWlLk6GJQsqaUBKTNV-1">
          <mxGeometry x="860" y="-40" width="110" height="50" as="geometry" />
        </mxCell>
        <mxCell id="-9TuaNc491Z5Ao6eYsdF-52" value="" style="endArrow=none;html=1;rounded=0;entryX=1;entryY=0.25;entryDx=0;entryDy=0;exitX=0;exitY=0.5;exitDx=0;exitDy=0;labelBackgroundColor=none;fontColor=default;" edge="1" parent="WIyWlLk6GJQsqaUBKTNV-1" source="-9TuaNc491Z5Ao6eYsdF-51" target="WIyWlLk6GJQsqaUBKTNV-7">
          <mxGeometry width="50" height="50" relative="1" as="geometry">
            <mxPoint x="600" y="180" as="sourcePoint" />
            <mxPoint x="530" y="180" as="targetPoint" />
          </mxGeometry>
        </mxCell>
        <mxCell id="-9TuaNc491Z5Ao6eYsdF-53" value="" style="endArrow=none;html=1;rounded=0;entryX=1;entryY=0.75;entryDx=0;entryDy=0;exitX=0;exitY=0.5;exitDx=0;exitDy=0;labelBackgroundColor=none;fontColor=default;" edge="1" parent="WIyWlLk6GJQsqaUBKTNV-1" source="-9TuaNc491Z5Ao6eYsdF-50" target="WIyWlLk6GJQsqaUBKTNV-7">
          <mxGeometry width="50" height="50" relative="1" as="geometry">
            <mxPoint x="610" y="190" as="sourcePoint" />
            <mxPoint x="540" y="190" as="targetPoint" />
          </mxGeometry>
        </mxCell>
        <mxCell id="-1vHqkQDzoYnj7FCtmZS-0" value="1" style="text;html=1;align=center;verticalAlign=middle;resizable=0;points=[];autosize=1;strokeColor=none;fillColor=none;" vertex="1" parent="WIyWlLk6GJQsqaUBKTNV-1">
          <mxGeometry x="170" y="165" width="30" height="30" as="geometry" />
        </mxCell>
        <mxCell id="-1vHqkQDzoYnj7FCtmZS-1" value="N" style="text;html=1;align=center;verticalAlign=middle;resizable=0;points=[];autosize=1;strokeColor=none;fillColor=none;" vertex="1" parent="WIyWlLk6GJQsqaUBKTNV-1">
          <mxGeometry x="180" y="50" width="30" height="30" as="geometry" />
        </mxCell>
        <mxCell id="-1vHqkQDzoYnj7FCtmZS-2" value="N" style="text;html=1;align=center;verticalAlign=middle;resizable=0;points=[];autosize=1;strokeColor=none;fillColor=none;" vertex="1" parent="WIyWlLk6GJQsqaUBKTNV-1">
          <mxGeometry x="320" y="100" width="30" height="30" as="geometry" />
        </mxCell>
        <mxCell id="-1vHqkQDzoYnj7FCtmZS-3" value="1" style="text;html=1;align=center;verticalAlign=middle;resizable=0;points=[];autosize=1;strokeColor=none;fillColor=none;" vertex="1" parent="WIyWlLk6GJQsqaUBKTNV-1">
          <mxGeometry x="350" y="140" width="30" height="30" as="geometry" />
        </mxCell>
        <mxCell id="-1vHqkQDzoYnj7FCtmZS-4" value="1" style="text;html=1;align=center;verticalAlign=middle;resizable=0;points=[];autosize=1;strokeColor=none;fillColor=none;" vertex="1" parent="WIyWlLk6GJQsqaUBKTNV-1">
          <mxGeometry x="430" y="20" width="30" height="30" as="geometry" />
        </mxCell>
        <mxCell id="-1vHqkQDzoYnj7FCtmZS-5" value="N" style="text;html=1;align=center;verticalAlign=middle;resizable=0;points=[];autosize=1;strokeColor=none;fillColor=none;" vertex="1" parent="WIyWlLk6GJQsqaUBKTNV-1">
          <mxGeometry x="606" y="20" width="30" height="30" as="geometry" />
        </mxCell>
        <mxCell id="-1vHqkQDzoYnj7FCtmZS-6" value="N" style="text;html=1;align=center;verticalAlign=middle;resizable=0;points=[];autosize=1;strokeColor=none;fillColor=none;" vertex="1" parent="WIyWlLk6GJQsqaUBKTNV-1">
          <mxGeometry x="-240" y="-170" width="30" height="30" as="geometry" />
        </mxCell>
        <mxCell id="-1vHqkQDzoYnj7FCtmZS-7" value="N" style="text;html=1;align=center;verticalAlign=middle;resizable=0;points=[];autosize=1;strokeColor=none;fillColor=none;" vertex="1" parent="WIyWlLk6GJQsqaUBKTNV-1">
          <mxGeometry x="-380" y="-170" width="30" height="30" as="geometry" />
        </mxCell>
        <mxCell id="-1vHqkQDzoYnj7FCtmZS-8" value="N" style="text;html=1;align=center;verticalAlign=middle;resizable=0;points=[];autosize=1;strokeColor=none;fillColor=none;" vertex="1" parent="WIyWlLk6GJQsqaUBKTNV-1">
          <mxGeometry x="130" y="-140" width="30" height="30" as="geometry" />
        </mxCell>
        <mxCell id="-1vHqkQDzoYnj7FCtmZS-9" value="1" style="text;html=1;align=center;verticalAlign=middle;resizable=0;points=[];autosize=1;strokeColor=none;fillColor=none;" vertex="1" parent="WIyWlLk6GJQsqaUBKTNV-1">
          <mxGeometry x="-100" y="-220" width="30" height="30" as="geometry" />
        </mxCell>
        <mxCell id="-1vHqkQDzoYnj7FCtmZS-10" value="N" style="text;html=1;align=center;verticalAlign=middle;resizable=0;points=[];autosize=1;strokeColor=none;fillColor=none;" vertex="1" parent="WIyWlLk6GJQsqaUBKTNV-1">
          <mxGeometry x="-240" y="-300" width="30" height="30" as="geometry" />
        </mxCell>
        <mxCell id="-1vHqkQDzoYnj7FCtmZS-11" value="1" style="text;html=1;align=center;verticalAlign=middle;resizable=0;points=[];autosize=1;strokeColor=none;fillColor=none;" vertex="1" parent="WIyWlLk6GJQsqaUBKTNV-1">
          <mxGeometry x="-370" y="-310" width="30" height="30" as="geometry" />
        </mxCell>
        <mxCell id="-1vHqkQDzoYnj7FCtmZS-12" value="N" style="text;html=1;align=center;verticalAlign=middle;resizable=0;points=[];autosize=1;strokeColor=none;fillColor=none;" vertex="1" parent="WIyWlLk6GJQsqaUBKTNV-1">
          <mxGeometry x="-100" y="-90" width="30" height="30" as="geometry" />
        </mxCell>
      </root>
    </mxGraphModel>
  </diagram>
</mxfile>
